<svg xmlns="http://www.w3.org/2000/svg" viewBox="0 0 304.58 85.9"><defs><style>.cls-1{fill:#00a79d;}.cls-2,.cls-3{fill:#fff;}.cls-3,.cls-5{fill-rule:evenodd;}.cls-4{fill:#fffcd5;}.cls-5{fill:#ee2a7b;}.cls-6{fill:#8dc63f;}</style></defs><title>PathogensInFoodsAsset 2</title><g id="Layer_2" data-name="Layer 2"><g id="Layer_1-2" data-name="Layer 1"><rect class="cls-1" y="0.25" width="304.58" height="85.64"/><path class="cls-2" d="M12.85,39.69a1.42,1.42,0,0,1,1.05,1.39L12.77,85.9h8.61L20.2,41.08a1.44,1.44,0,0,1,1.05-1.4c2.73-.79,4.79-4.53,4.79-9v-.45c0-.15,0-.3,0-.46s0-.09,0-.15L25.39,7.72a1.12,1.12,0,0,0-1.3-1.1,1.16,1.16,0,0,0-.93,1.16l.65,17.83h0V29.1a1.47,1.47,0,0,1-1.47,1.55,1.51,1.51,0,0,1-1.48-1.55V27.56h0L20.69,8a1.15,1.15,0,0,0-.93-1.15,1.11,1.11,0,0,0-1.3,1.09l.17,19.59h0V29.1a1.54,1.54,0,1,1-3.08,0V25.48l.19-17.63a1.15,1.15,0,0,0-.93-1.16,1.12,1.12,0,0,0-1.3,1.1l-.19,17.86a.06.06,0,0,1,0,0V29.1a1.45,1.45,0,0,1-1.52,1.55,1.48,1.48,0,0,1-1.53-1.55V25.68l.65-17.8A1.16,1.16,0,0,0,10,6.72a1.12,1.12,0,0,0-1.3,1.1L8.06,29.68a.49.49,0,0,0,0,.12c0,.13,0,.26,0,.39v.45C8.06,35.15,10.12,38.89,12.85,39.69Z"/><path class="cls-2" d="M137.83,85.9h7.78c-.16-6.58-.27-13.51-.28-20.33,0-.2,0-.4,0-.6,2.16-24.09.83-50.6,1.17-54.85.37-4.58-3.53-5.29-7,.41-5.65,9.4-8.43,30.05-1.56,45.08C138,55.79,138,70.39,137.83,85.9Z"/><path class="cls-2" d="M161.66,72.52l-.41,13.38h5.56l-.3-13.35c5.15-1.09,10.47-5.71,10.5-14,0-9.63-5.67-22.66-12.78-22.69s-12.93,12.95-13,22.58C151.23,66.71,156.62,71.36,161.66,72.52Z"/><path class="cls-3" d="M49.43,85.9a44.48,44.48,0,1,1,58.21,0h11a52.3,52.3,0,1,0-80.11,0Z"/><path class="cls-3" d="M53.07,85.9H104a42.17,42.17,0,1,0-50.93,0Z"/><path class="cls-4" d="M163.26,22.32v8H159V8.1h7.4a6.56,6.56,0,0,1,5,1.93,7.27,7.27,0,0,1,1.82,5.18,7.24,7.24,0,0,1-1.82,5.18,6.56,6.56,0,0,1-5,1.93Zm0-3.47h3.15a2.19,2.19,0,0,0,2-1,4.72,4.72,0,0,0,.65-2.6,4.88,4.88,0,0,0-.65-2.65,2.17,2.17,0,0,0-2-1h-3.15Z"/><path class="cls-4" d="M183.26,25.53h-5.48l-1.08,4.74h-4.28L178.34,8.1h4.4l5.89,22.17h-4.26Zm-4.69-3.46h3.9l-1.94-8.34h0Z"/><path class="cls-4" d="M201.74,11.57h-5.3v18.7h-4.23V11.57h-5.28V8.1h14.81Z"/><path class="cls-4" d="M218.09,30.27h-4.25V21.09h-6.35v9.18h-4.25V8.1h4.25v9.53h6.35V8.1h4.25Z"/><path class="cls-4" d="M235,22.3a8.71,8.71,0,0,1-2,6.15,7.95,7.95,0,0,1-10.83,0,8.75,8.75,0,0,1-2-6.15V16.09a8.83,8.83,0,0,1,2-6.16,6.92,6.92,0,0,1,5.38-2.15A7.05,7.05,0,0,1,233,9.93a8.74,8.74,0,0,1,2,6.16Zm-4.25-6.24a6.65,6.65,0,0,0-.78-3.64,2.71,2.71,0,0,0-2.4-1.15,2.57,2.57,0,0,0-2.35,1.15,6.83,6.83,0,0,0-.74,3.64V22.3a6.85,6.85,0,0,0,.75,3.66,2.62,2.62,0,0,0,2.37,1.15A2.65,2.65,0,0,0,229.92,26a6.68,6.68,0,0,0,.78-3.66Z"/><path class="cls-4" d="M250.87,27.21a8,8,0,0,1-2.55,2.38,8.26,8.26,0,0,1-4.31,1,7.22,7.22,0,0,1-5.44-2,8.28,8.28,0,0,1-2-6V15.8a8.41,8.41,0,0,1,1.92-6,6.83,6.83,0,0,1,5.24-2.06q3.56,0,5.25,1.77a8,8,0,0,1,1.86,5.29h-4.11a4.57,4.57,0,0,0-.72-2.76,3,3,0,0,0-4.42.26,6.06,6.06,0,0,0-.77,3.43v6.79a6,6,0,0,0,.79,3.48A2.72,2.72,0,0,0,244,27.13a3.18,3.18,0,0,0,1.71-.34,2.91,2.91,0,0,0,.91-1.05v-4H244v-3h6.85Z"/><path class="cls-4" d="M264.18,20.54h-7v6.27h8.25v3.46h-12.5V8.1H265.4v3.47h-8.22v5.51h7Z"/><path class="cls-4" d="M281.72,30.27h-4.23l-6.29-14h-.05v14h-4.24V8.1h4.24l6.29,14h.05V8.1h4.23Z"/><path class="cls-4" d="M293.31,24.48a3.13,3.13,0,0,0-.6-2.05A6.34,6.34,0,0,0,290.54,21a15.12,15.12,0,0,1-5-2.72,5.54,5.54,0,0,1-1.62-4.3,5.69,5.69,0,0,1,1.89-4.47,7.2,7.2,0,0,1,5-1.68,6.6,6.6,0,0,1,4.93,1.9,6.68,6.68,0,0,1,1.87,4.92h-4.25a4.13,4.13,0,0,0-.67-2.49,2.27,2.27,0,0,0-2-.92,2.3,2.3,0,0,0-1.87.78,2.92,2.92,0,0,0-.66,2,2.36,2.36,0,0,0,.74,1.8,10.7,10.7,0,0,0,2.61,1.58A11.29,11.29,0,0,1,296.08,20a6.29,6.29,0,0,1,1.48,4.45,5.76,5.76,0,0,1-1.8,4.54,7.12,7.12,0,0,1-4.9,1.59,7.91,7.91,0,0,1-5.27-1.82,6.67,6.67,0,0,1-2.19-5.42h4.27a4.52,4.52,0,0,0,.76,3,3.06,3.06,0,0,0,2.43.87,2.27,2.27,0,0,0,1.87-.72A3,3,0,0,0,293.31,24.48Z"/><path class="cls-2" d="M191.59,34.43h-1.7V32h1.7Zm0,19.87h-1.7V38.86h1.7Z"/><path class="cls-2" d="M197.12,38.86l.14,2.85h0a5.91,5.91,0,0,1,2-2.31,5.26,5.26,0,0,1,3-.84A4.77,4.77,0,0,1,206.08,40c.86,1,1.29,2.53,1.29,4.69V54.3h-1.72V44.75a5.47,5.47,0,0,0-.94-3.67,3.66,3.66,0,0,0-2.82-1,4.25,4.25,0,0,0-2.89,1,6.14,6.14,0,0,0-1.72,2.54V54.3h-1.72V38.86Z"/><path class="cls-4" d="M229.05,45.09h-7V54.3h-4.25V32.13H230.3V35.6h-8.21v6h7Z"/><path class="cls-4" d="M246.92,46.34a8.71,8.71,0,0,1-2,6.15,8,8,0,0,1-10.84,0,8.8,8.8,0,0,1-1.95-6.15V40.12A8.85,8.85,0,0,1,234.1,34a6.91,6.91,0,0,1,5.39-2.16A7,7,0,0,1,244.93,34a8.76,8.76,0,0,1,2,6.15Zm-4.25-6.25a6.51,6.51,0,0,0-.79-3.63,2.67,2.67,0,0,0-2.39-1.16,2.6,2.6,0,0,0-2.36,1.15,6.94,6.94,0,0,0-.73,3.64v6.25a6.9,6.9,0,0,0,.75,3.66,2.64,2.64,0,0,0,2.37,1.15A2.67,2.67,0,0,0,241.89,50a6.67,6.67,0,0,0,.78-3.65Z"/><path class="cls-4" d="M264.26,46.34a8.71,8.71,0,0,1-2,6.15,7.95,7.95,0,0,1-10.83,0,8.8,8.8,0,0,1-2-6.15V40.12a8.85,8.85,0,0,1,2-6.15,6.89,6.89,0,0,1,5.38-2.16A7,7,0,0,1,262.27,34a8.72,8.72,0,0,1,2,6.15ZM260,40.09a6.61,6.61,0,0,0-.78-3.63,2.68,2.68,0,0,0-2.4-1.16,2.58,2.58,0,0,0-2.35,1.15,6.93,6.93,0,0,0-.74,3.64v6.25A6.79,6.79,0,0,0,254.5,50a2.63,2.63,0,0,0,2.36,1.15A2.67,2.67,0,0,0,259.24,50a6.77,6.77,0,0,0,.77-3.65Z"/><path class="cls-4" d="M267.11,54.3V32.13h5.59q4.13,0,6.25,2.26c1.42,1.5,2.12,3.8,2.12,6.91v3.86c0,3.12-.7,5.42-2.12,6.91s-3.51,2.23-6.29,2.23Zm4.25-18.7V50.84h1.05c1.73,0,2.9-.42,3.51-1.27a7.86,7.86,0,0,0,.92-4.41V41.27c0-2.09-.3-3.56-.91-4.4s-1.77-1.27-3.47-1.27Z"/><path class="cls-4" d="M293.31,48.51a3.13,3.13,0,0,0-.6-2A6.34,6.34,0,0,0,290.54,45a15.12,15.12,0,0,1-5-2.72,5.54,5.54,0,0,1-1.62-4.3,5.72,5.72,0,0,1,1.89-4.47,7.2,7.2,0,0,1,5-1.68,6.6,6.6,0,0,1,4.93,1.9,6.68,6.68,0,0,1,1.87,4.92h-4.25a4.15,4.15,0,0,0-.67-2.49,2.27,2.27,0,0,0-2-.92,2.3,2.3,0,0,0-1.87.78,3,3,0,0,0-.66,2,2.36,2.36,0,0,0,.74,1.8,10.7,10.7,0,0,0,2.61,1.58A11.18,11.18,0,0,1,296.08,44a6.25,6.25,0,0,1,1.48,4.44,5.76,5.76,0,0,1-1.8,4.54,7.12,7.12,0,0,1-4.9,1.6,7.92,7.92,0,0,1-5.27-1.83,6.65,6.65,0,0,1-2.19-5.42h4.27a4.51,4.51,0,0,0,.76,3,3.06,3.06,0,0,0,2.43.87,2.31,2.31,0,0,0,1.87-.71A3.07,3.07,0,0,0,293.31,48.51Z"/><path class="cls-2" d="M188,71.39a10.2,10.2,0,0,1,1.53-6,5,5,0,0,1,4.39-2.19,5.58,5.58,0,0,1,2.8.66,5.37,5.37,0,0,1,1.92,1.9l0,0V56.72h1.7V79h-1.52l-.14-2.17h0a5.32,5.32,0,0,1-1.95,1.83,6,6,0,0,1-2.85.64,5.15,5.15,0,0,1-4.36-2A9,9,0,0,1,188,71.69Zm1.71.3a8,8,0,0,0,1.1,4.48,3.81,3.81,0,0,0,3.4,1.62,4.82,4.82,0,0,0,2.77-.73A5.06,5.06,0,0,0,198.7,75V67.75a5.43,5.43,0,0,0-1.65-2.19,4.43,4.43,0,0,0-2.81-.82,3.71,3.71,0,0,0-3.41,1.82,9.19,9.19,0,0,0-1.11,4.83Z"/><path class="cls-2" d="M213.77,79c-.11-.53-.19-1-.24-1.34a8,8,0,0,1-.07-1.1h-.05A6.6,6.6,0,0,1,208,79.27a4.86,4.86,0,0,1-3.52-1.18,4.23,4.23,0,0,1-1.23-3.22A4,4,0,0,1,205,71.42a8.69,8.69,0,0,1,5-1.26h3.41V68.25a3.28,3.28,0,0,0-1.05-2.61,4.37,4.37,0,0,0-3-.93,4.76,4.76,0,0,0-3,.89,2.69,2.69,0,0,0-1.16,2.2h-1.7a4,4,0,0,1,1.65-3.18,6.46,6.46,0,0,1,4.26-1.36,6.27,6.27,0,0,1,4.14,1.28,4.6,4.6,0,0,1,1.53,3.75v7.59a13.36,13.36,0,0,0,.08,1.58,8.34,8.34,0,0,0,.32,1.53Zm-5.61-1.21a6.23,6.23,0,0,0,3.28-.85,5.07,5.07,0,0,0,2-2.22V71.47H210a6.34,6.34,0,0,0-3.74,1,3,3,0,0,0-1.37,2.48,2.65,2.65,0,0,0,.85,2A3.37,3.37,0,0,0,208.16,77.77Z"/><path class="cls-2" d="M221,59.58v4h3.24v1.4H221V75a3.45,3.45,0,0,0,.51,2.16,1.69,1.69,0,0,0,1.38.62c.24,0,.47,0,.67,0l.77-.13.24,1.29a4.75,4.75,0,0,1-.91.25,5.55,5.55,0,0,1-1.07.11,3,3,0,0,1-2.45-1,5,5,0,0,1-.85-3.27V64.94h-2.54v-1.4h2.54v-4Z"/><path class="cls-2" d="M236.63,79c-.11-.53-.19-1-.24-1.34a8,8,0,0,1-.07-1.1h0a6.58,6.58,0,0,1-2.24,2,6.47,6.47,0,0,1-3.21.78,4.85,4.85,0,0,1-3.52-1.18,4.23,4.23,0,0,1-1.23-3.22,4,4,0,0,1,1.82-3.45,8.69,8.69,0,0,1,5-1.26h3.41V68.25a3.28,3.28,0,0,0-1-2.61,4.37,4.37,0,0,0-3-.93,4.81,4.81,0,0,0-3,.89,2.68,2.68,0,0,0-1.15,2.2h-1.7a4,4,0,0,1,1.65-3.18,6.46,6.46,0,0,1,4.26-1.36,6.27,6.27,0,0,1,4.14,1.28A4.6,4.6,0,0,1,238,68.28v7.59a13.31,13.31,0,0,0,.09,1.58,9.23,9.23,0,0,0,.31,1.53ZM231,77.77a6.23,6.23,0,0,0,3.28-.85,5.13,5.13,0,0,0,2-2.22V71.47h-3.44a6.34,6.34,0,0,0-3.74,1,2.93,2.93,0,0,0-1.37,2.48,2.65,2.65,0,0,0,.85,2A3.36,3.36,0,0,0,231,77.77Z"/><path class="cls-2" d="M254,71.69a9,9,0,0,1-1.54,5.55,5.16,5.16,0,0,1-4.35,2,6,6,0,0,1-2.92-.66,5.15,5.15,0,0,1-1.95-1.9h0L243,79h-1.47V56.72h1.72v9.16h0a5.34,5.34,0,0,1,1.93-2,5.62,5.62,0,0,1,2.85-.68,5,5,0,0,1,4.38,2.19,10.12,10.12,0,0,1,1.54,6Zm-1.72-.3a9.18,9.18,0,0,0-1.12-4.83,3.73,3.73,0,0,0-3.41-1.82,4.43,4.43,0,0,0-2.89.87,5.33,5.33,0,0,0-1.6,2.28v7A5,5,0,0,0,245,77a4.8,4.8,0,0,0,2.83.78,3.83,3.83,0,0,0,3.39-1.62,7.88,7.88,0,0,0,1.11-4.48Z"/><path class="cls-2" d="M266.69,79c-.11-.53-.19-1-.24-1.34a8,8,0,0,1-.07-1.1h-.05a6.58,6.58,0,0,1-2.24,2,6.47,6.47,0,0,1-3.21.78,4.85,4.85,0,0,1-3.52-1.18,4.23,4.23,0,0,1-1.23-3.22A4,4,0,0,1,258,71.42a8.69,8.69,0,0,1,5-1.26h3.41V68.25a3.28,3.28,0,0,0-1.05-2.61,4.37,4.37,0,0,0-3-.93,4.81,4.81,0,0,0-3,.89,2.68,2.68,0,0,0-1.15,2.2h-1.7a4,4,0,0,1,1.65-3.18,6.46,6.46,0,0,1,4.26-1.36,6.27,6.27,0,0,1,4.14,1.28,4.6,4.6,0,0,1,1.52,3.75v7.59a13.31,13.31,0,0,0,.09,1.58,9.23,9.23,0,0,0,.31,1.53Zm-5.61-1.21a6.23,6.23,0,0,0,3.28-.85,5.13,5.13,0,0,0,2-2.22V71.47h-3.44a6.34,6.34,0,0,0-3.74,1,2.93,2.93,0,0,0-1.37,2.48,2.65,2.65,0,0,0,.85,2A3.36,3.36,0,0,0,261.08,77.77Z"/><path class="cls-2" d="M280.7,75.05a2.48,2.48,0,0,0-.87-1.9,7.36,7.36,0,0,0-3.24-1.32,11.08,11.08,0,0,1-4.12-1.57,3.27,3.27,0,0,1-1.29-2.8,3.74,3.74,0,0,1,1.46-3,6.1,6.1,0,0,1,4-1.2,6.29,6.29,0,0,1,4.18,1.28,4.14,4.14,0,0,1,1.51,3.33H280.6a2.83,2.83,0,0,0-1.06-2.22,4.27,4.27,0,0,0-2.92-.93,4.17,4.17,0,0,0-2.82.8,2.43,2.43,0,0,0-.92,1.89,2.23,2.23,0,0,0,.78,1.77,8,8,0,0,0,3.24,1.23,10.81,10.81,0,0,1,4.15,1.67A3.42,3.42,0,0,1,282.4,75a3.71,3.71,0,0,1-1.54,3.13,6.7,6.7,0,0,1-4.16,1.17,6.77,6.77,0,0,1-4.45-1.33,4.14,4.14,0,0,1-1.58-3.28h1.7a2.79,2.79,0,0,0,1.34,2.44,5.91,5.91,0,0,0,3,.72,4.78,4.78,0,0,0,2.94-.79A2.38,2.38,0,0,0,280.7,75.05Z"/><path class="cls-2" d="M291.33,79.27a6.41,6.41,0,0,1-5-2.1,7.77,7.77,0,0,1-1.91-5.45v-.79a8.07,8.07,0,0,1,1.89-5.53A6,6,0,0,1,291,63.25,5.77,5.77,0,0,1,295.47,65a7,7,0,0,1,1.59,4.84V71.3H286.15v.42a6.66,6.66,0,0,0,1.42,4.38,4.6,4.6,0,0,0,3.76,1.72,6.94,6.94,0,0,0,2.48-.4,6.28,6.28,0,0,0,2-1.29l.73,1.17a6.46,6.46,0,0,1-2.13,1.44A8.06,8.06,0,0,1,291.33,79.27ZM291,64.71a4.13,4.13,0,0,0-3.21,1.43,6.71,6.71,0,0,0-1.56,3.72h9.15v-.43A5,5,0,0,0,294.2,66,4,4,0,0,0,291,64.71Z"/><path class="cls-5" d="M31.52,67,12.16,85.9H22.44l13.8-14.17a7.12,7.12,0,0,1,8.68-1.07A35.5,35.5,0,1,0,32.66,58.43,7.08,7.08,0,0,1,31.52,67Z"/><path class="cls-3" d="M85.5,17.81a31.44,31.44,0,1,1-44.46,0A31.45,31.45,0,0,1,85.5,17.81Z"/><rect class="cls-6" x="72.73" y="38.38" width="10.63" height="3.61" rx="1.75" ry="1.75"/><rect class="cls-6" x="55.16" y="37.98" width="8.88" height="3.01" rx="1.46" ry="1.46" transform="translate(-11.76 35.09) rotate(-30)"/><rect class="cls-6" x="52.62" y="25.8" width="12.73" height="4.32" rx="2.1" ry="2.1" transform="translate(10.8 -16.08) rotate(17.06)"/><rect class="cls-6" x="77.72" y="20.19" width="7.7" height="2.61" rx="1.27" ry="1.27" transform="translate(-1.35 36.99) rotate(-25.35)"/><circle class="cls-6" cx="68.81" cy="22.89" r="2.56"/><circle class="cls-6" cx="72.75" cy="30.16" r="3.7"/><circle class="cls-6" cx="80.28" cy="31.77" r="1.18"/><circle class="cls-6" cx="71.38" cy="13.39" r="1.46"/><circle class="cls-6" cx="67.48" cy="38.72" r="1.46"/><circle class="cls-6" cx="64.27" cy="47.58" r="2.56"/></g></g></svg>